<svg id="visual" viewBox="0 0 1920 1080" width="1920" height="1080" xmlns="http://www.w3.org/2000/svg" xmlns:xlink="http://www.w3.org/1999/xlink" version="1.1"><rect x="0" y="0" width="1920" height="1080" fill="#0e0f0f"></rect><defs><linearGradient id="grad1_0" x1="43.8%" y1="0%" x2="100%" y2="100%"><stop offset="14.444444444444446%" stop-color="#55ff71" stop-opacity="1"></stop><stop offset="85.55555555555554%" stop-color="#55ff71" stop-opacity="1"></stop></linearGradient></defs><defs><linearGradient id="grad1_1" x1="43.8%" y1="0%" x2="100%" y2="100%"><stop offset="14.444444444444446%" stop-color="#55ff71" stop-opacity="1"></stop><stop offset="85.55555555555554%" stop-color="#00d475" stop-opacity="1"></stop></linearGradient></defs><defs><linearGradient id="grad1_2" x1="43.8%" y1="0%" x2="100%" y2="100%"><stop offset="14.444444444444446%" stop-color="#00aa6f" stop-opacity="1"></stop><stop offset="85.55555555555554%" stop-color="#00d475" stop-opacity="1"></stop></linearGradient></defs><defs><linearGradient id="grad1_3" x1="43.8%" y1="0%" x2="100%" y2="100%"><stop offset="14.444444444444446%" stop-color="#00aa6f" stop-opacity="1"></stop><stop offset="85.55555555555554%" stop-color="#008062" stop-opacity="1"></stop></linearGradient></defs><defs><linearGradient id="grad1_4" x1="43.8%" y1="0%" x2="100%" y2="100%"><stop offset="14.444444444444446%" stop-color="#00584c" stop-opacity="1"></stop><stop offset="85.55555555555554%" stop-color="#008062" stop-opacity="1"></stop></linearGradient></defs><defs><linearGradient id="grad1_5" x1="43.8%" y1="0%" x2="100%" y2="100%"><stop offset="14.444444444444446%" stop-color="#00584c" stop-opacity="1"></stop><stop offset="85.55555555555554%" stop-color="#073330" stop-opacity="1"></stop></linearGradient></defs><defs><linearGradient id="grad1_6" x1="43.8%" y1="0%" x2="100%" y2="100%"><stop offset="14.444444444444446%" stop-color="#0e0f0f" stop-opacity="1"></stop><stop offset="85.55555555555554%" stop-color="#073330" stop-opacity="1"></stop></linearGradient></defs><defs><linearGradient id="grad2_0" x1="0%" y1="0%" x2="56.3%" y2="100%"><stop offset="14.444444444444446%" stop-color="#55ff71" stop-opacity="1"></stop><stop offset="85.55555555555554%" stop-color="#55ff71" stop-opacity="1"></stop></linearGradient></defs><defs><linearGradient id="grad2_1" x1="0%" y1="0%" x2="56.3%" y2="100%"><stop offset="14.444444444444446%" stop-color="#00d475" stop-opacity="1"></stop><stop offset="85.55555555555554%" stop-color="#55ff71" stop-opacity="1"></stop></linearGradient></defs><defs><linearGradient id="grad2_2" x1="0%" y1="0%" x2="56.3%" y2="100%"><stop offset="14.444444444444446%" stop-color="#00d475" stop-opacity="1"></stop><stop offset="85.55555555555554%" stop-color="#00aa6f" stop-opacity="1"></stop></linearGradient></defs><defs><linearGradient id="grad2_3" x1="0%" y1="0%" x2="56.3%" y2="100%"><stop offset="14.444444444444446%" stop-color="#008062" stop-opacity="1"></stop><stop offset="85.55555555555554%" stop-color="#00aa6f" stop-opacity="1"></stop></linearGradient></defs><defs><linearGradient id="grad2_4" x1="0%" y1="0%" x2="56.3%" y2="100%"><stop offset="14.444444444444446%" stop-color="#008062" stop-opacity="1"></stop><stop offset="85.55555555555554%" stop-color="#00584c" stop-opacity="1"></stop></linearGradient></defs><defs><linearGradient id="grad2_5" x1="0%" y1="0%" x2="56.3%" y2="100%"><stop offset="14.444444444444446%" stop-color="#073330" stop-opacity="1"></stop><stop offset="85.55555555555554%" stop-color="#00584c" stop-opacity="1"></stop></linearGradient></defs><defs><linearGradient id="grad2_6" x1="0%" y1="0%" x2="56.3%" y2="100%"><stop offset="14.444444444444446%" stop-color="#073330" stop-opacity="1"></stop><stop offset="85.55555555555554%" stop-color="#0e0f0f" stop-opacity="1"></stop></linearGradient></defs><g transform="translate(1920, 0)"><path d="M0 756C-23.9 700 -47.8 644 -77.5 638.3C-107.2 632.6 -142.8 677.3 -165.1 669.9C-187.4 662.6 -196.5 603.3 -228.7 603.1C-260.9 602.8 -316.3 661.6 -351.3 669.4C-386.4 677.2 -401.2 634.1 -409.6 593.4C-417.9 552.7 -419.8 514.4 -434.3 490.3C-448.8 466.2 -475.9 456.2 -497.8 441C-519.6 425.7 -536.1 405.2 -565.4 390.3C-594.7 375.3 -636.6 365.9 -658.8 345.8C-680.9 325.6 -683.2 294.6 -703.1 266.7C-723.1 238.8 -760.7 214 -732.1 180.4C-703.5 146.9 -608.6 104.6 -601.6 73C-594.5 41.5 -675.3 20.8 -756 0L0 0Z" fill="#0f2121"></path><path d="M0 648C-20.5 600 -41 552 -66.4 547.1C-91.9 542.3 -122.4 580.5 -141.5 574.2C-160.7 568 -168.4 517.2 -196 516.9C-223.6 516.7 -271.1 567.1 -301.1 573.8C-331.2 580.5 -343.9 543.5 -351.1 508.6C-358.2 473.7 -359.9 440.9 -372.3 420.2C-384.7 399.6 -407.9 391 -426.7 378C-445.4 364.9 -459.5 347.3 -484.6 334.5C-509.7 321.7 -545.7 313.7 -564.7 296.4C-583.6 279.1 -585.6 252.5 -602.7 228.6C-619.8 204.7 -652 183.4 -627.5 154.7C-603 125.9 -521.7 89.6 -515.6 62.6C-509.6 35.6 -578.8 17.8 -648 0L0 0Z" fill="#00453f"></path><path d="M0 540C-17.1 500 -34.1 460 -55.4 455.9C-76.6 451.9 -102 483.8 -117.9 478.5C-133.9 473.3 -140.4 431 -163.4 430.8C-186.4 430.6 -225.9 472.6 -251 478.1C-276 483.7 -286.6 452.9 -292.6 423.8C-298.5 394.8 -299.9 367.4 -310.2 350.2C-320.6 333 -340 325.9 -355.5 315C-371.1 304.1 -382.9 289.4 -403.8 278.8C-424.8 268.1 -454.7 261.4 -470.6 247C-486.4 232.5 -488 210.4 -502.2 190.5C-516.5 170.5 -543.4 152.9 -522.9 128.9C-502.5 104.9 -434.7 74.7 -429.7 52.2C-424.7 29.6 -482.3 14.8 -540 0L0 0Z" fill="#006c58"></path><path d="M0 432C-13.7 400 -27.3 368 -44.3 364.7C-61.3 361.5 -81.6 387 -94.4 382.8C-107.1 378.6 -112.3 344.8 -130.7 344.6C-149.1 344.5 -180.7 378.1 -200.8 382.5C-220.8 387 -229.3 362.3 -234 339.1C-238.8 315.8 -239.9 293.9 -248.2 280.2C-256.5 266.4 -272 260.7 -284.4 252C-296.9 243.3 -306.4 231.5 -323.1 223C-339.8 214.5 -363.8 209.1 -376.4 197.6C-389.1 186 -390.4 168.3 -401.8 152.4C-413.2 136.4 -434.7 122.3 -418.3 103.1C-402 83.9 -347.8 59.8 -343.8 41.7C-339.7 23.7 -385.9 11.9 -432 0L0 0Z" fill="#00956a"></path><path d="M0 324C-10.2 300 -20.5 276 -33.2 273.6C-46 271.1 -61.2 290.3 -70.8 287.1C-80.3 284 -84.2 258.6 -98 258.5C-111.8 258.4 -135.5 283.5 -150.6 286.9C-165.6 290.2 -171.9 271.7 -175.5 254.3C-179.1 236.9 -179.9 220.5 -186.1 210.1C-192.4 199.8 -204 195.5 -213.3 189C-222.7 182.5 -229.8 173.7 -242.3 167.3C-254.9 160.8 -272.8 156.8 -282.3 148.2C-291.8 139.5 -292.8 126.2 -301.3 114.3C-309.9 102.3 -326 91.7 -313.8 77.3C-301.5 63 -260.8 44.8 -257.8 31.3C-254.8 17.8 -289.4 8.9 -324 0L0 0Z" fill="#00bf73"></path><path d="M0 216C-6.8 200 -13.7 184 -22.1 182.4C-30.6 180.8 -40.8 193.5 -47.2 191.4C-53.6 189.3 -56.1 172.4 -65.3 172.3C-74.5 172.2 -90.4 189 -100.4 191.3C-110.4 193.5 -114.6 181.2 -117 169.5C-119.4 157.9 -120 147 -124.1 140.1C-128.2 133.2 -136 130.3 -142.2 126C-148.5 121.6 -153.2 115.8 -161.5 111.5C-169.9 107.2 -181.9 104.6 -188.2 98.8C-194.5 93 -195.2 84.2 -200.9 76.2C-206.6 68.2 -217.3 61.1 -209.2 51.6C-201 42 -173.9 29.9 -171.9 20.9C-169.9 11.9 -192.9 5.9 -216 0L0 0Z" fill="#2fea74"></path><path d="M0 108C-3.4 100 -6.8 92 -11.1 91.2C-15.3 90.4 -20.4 96.8 -23.6 95.7C-26.8 94.7 -28.1 86.2 -32.7 86.2C-37.3 86.1 -45.2 94.5 -50.2 95.6C-55.2 96.7 -57.3 90.6 -58.5 84.8C-59.7 79 -60 73.5 -62 70C-64.1 66.6 -68 65.2 -71.1 63C-74.2 60.8 -76.6 57.9 -80.8 55.8C-85 53.6 -90.9 52.3 -94.1 49.4C-97.3 46.5 -97.6 42.1 -100.4 38.1C-103.3 34.1 -108.7 30.6 -104.6 25.8C-100.5 21 -86.9 14.9 -85.9 10.4C-84.9 5.9 -96.5 3 -108 0L0 0Z" fill="#55ff71"></path></g><g transform="translate(0, 1080)"><path d="M0 -756C32.2 -758.1 64.4 -760.2 88.2 -726.7C112 -693.1 127.4 -623.9 145.5 -590.3C163.6 -556.7 184.6 -558.7 217 -572.2C249.4 -585.7 293.4 -610.8 311.4 -593.3C329.4 -575.7 321.4 -515.7 350.5 -507.8C379.6 -499.9 445.6 -544 486.1 -548.7C526.5 -553.3 541.3 -518.4 538.9 -477.4C536.6 -436.5 517 -389.7 525.9 -363C534.8 -336.3 572 -329.9 597.7 -313.7C623.3 -297.5 637.3 -271.6 648 -245.7C658.6 -219.9 666 -194.1 685.5 -169C705 -143.8 736.7 -119.2 750.5 -91.1C764.3 -63.1 760.1 -31.5 756 0L0 0Z" fill="#0f2121"></path><path d="M0 -648C27.6 -649.8 55.2 -651.6 75.6 -622.9C96 -594.1 109.2 -534.8 124.7 -506C140.3 -477.2 158.2 -478.9 186 -490.5C213.8 -502.1 251.5 -523.5 266.9 -508.5C282.3 -493.5 275.5 -442 300.4 -435.2C325.3 -428.4 382 -466.3 416.6 -470.3C451.3 -474.2 464 -444.3 461.9 -409.2C459.9 -374.2 443.2 -334 450.8 -311.1C458.4 -288.3 490.3 -282.7 512.3 -268.9C534.3 -255 546.3 -232.8 555.4 -210.6C564.5 -188.5 570.8 -166.4 587.6 -144.8C604.3 -123.2 631.5 -102.2 643.3 -78.1C655.1 -54.1 651.5 -27 648 0L0 0Z" fill="#00453f"></path><path d="M0 -540C23 -541.5 46 -543 63 -519C80 -495.1 91 -445.7 103.9 -421.7C116.9 -397.7 131.8 -399.1 155 -408.7C178.2 -418.4 209.6 -436.3 222.4 -423.8C235.3 -411.2 229.6 -368.4 250.4 -362.7C271.1 -357 318.3 -388.6 347.2 -391.9C376.1 -395.2 386.6 -370.3 384.9 -341C383.3 -311.8 369.3 -278.3 375.6 -259.3C382 -240.2 408.6 -235.6 426.9 -224.1C445.2 -212.5 455.2 -194 462.8 -175.5C470.4 -157.1 475.7 -138.7 489.6 -120.7C503.6 -102.7 526.2 -85.1 536.1 -65.1C545.9 -45 543 -22.5 540 0L0 0Z" fill="#006c58"></path><path d="M0 -432C18.4 -433.2 36.8 -434.4 50.4 -415.2C64 -396.1 72.8 -356.5 83.1 -337.3C93.5 -318.1 105.5 -319.3 124 -327C142.5 -334.7 167.6 -349 177.9 -339C188.2 -329 183.7 -294.7 200.3 -290.2C216.9 -285.6 254.6 -310.9 277.8 -313.5C300.9 -316.2 309.3 -296.2 308 -272.8C306.6 -249.5 295.4 -222.7 300.5 -207.4C305.6 -192.2 326.9 -188.5 341.5 -179.3C356.2 -170 364.2 -155.2 370.3 -140.4C376.4 -125.7 380.6 -110.9 391.7 -96.5C402.9 -82.2 421 -68.1 428.9 -52.1C436.7 -36 434.4 -18 432 0L0 0Z" fill="#00956a"></path><path d="M0 -324C13.8 -324.9 27.6 -325.8 37.8 -311.4C48 -297.1 54.6 -267.4 62.4 -253C70.1 -238.6 79.1 -239.5 93 -245.2C106.9 -251 125.7 -261.8 133.4 -254.3C141.2 -246.7 137.8 -221 150.2 -217.6C162.7 -214.2 191 -233.2 208.3 -235.1C225.6 -237.1 232 -222.2 231 -204.6C230 -187.1 221.6 -167 225.4 -155.6C229.2 -144.1 245.2 -141.4 256.1 -134.4C267.1 -127.5 273.1 -116.4 277.7 -105.3C282.3 -94.2 285.4 -83.2 293.8 -72.4C302.1 -61.6 315.7 -51.1 321.6 -39.1C327.5 -27 325.8 -13.5 324 0L0 0Z" fill="#00bf73"></path><path d="M0 -216C9.2 -216.6 18.4 -217.2 25.2 -207.6C32 -198 36.4 -178.3 41.6 -168.7C46.8 -159.1 52.7 -159.6 62 -163.5C71.3 -167.4 83.8 -174.5 89 -169.5C94.1 -164.5 91.8 -147.3 100.1 -145.1C108.4 -142.8 127.3 -155.4 138.9 -156.8C150.4 -158.1 154.7 -148.1 154 -136.4C153.3 -124.7 147.7 -111.3 150.3 -103.7C152.8 -96.1 163.4 -94.2 170.8 -89.6C178.1 -85 182.1 -77.6 185.1 -70.2C188.2 -62.8 190.3 -55.5 195.9 -48.3C201.4 -41.1 210.5 -34.1 214.4 -26C218.4 -18 217.2 -9 216 0L0 0Z" fill="#2fea74"></path><path d="M0 -108C4.6 -108.3 9.2 -108.6 12.6 -103.8C16 -99 18.2 -89.1 20.8 -84.3C23.4 -79.5 26.4 -79.8 31 -81.7C35.6 -83.7 41.9 -87.3 44.5 -84.8C47.1 -82.2 45.9 -73.7 50.1 -72.5C54.2 -71.4 63.7 -77.7 69.4 -78.4C75.2 -79 77.3 -74.1 77 -68.2C76.7 -62.4 73.9 -55.7 75.1 -51.9C76.4 -48 81.7 -47.1 85.4 -44.8C89 -42.5 91 -38.8 92.6 -35.1C94.1 -31.4 95.1 -27.7 97.9 -24.1C100.7 -20.5 105.2 -17 107.2 -13C109.2 -9 108.6 -4.5 108 0L0 0Z" fill="#55ff71"></path></g></svg>