<svg id="visual" viewBox="0 0 1920 1080" width="1920" height="1080" xmlns="http://www.w3.org/2000/svg" xmlns:xlink="http://www.w3.org/1999/xlink" version="1.1"><rect x="0" y="0" width="1920" height="1080" fill="#000b15"></rect><defs><linearGradient id="grad1_0" x1="43.8%" y1="0%" x2="100%" y2="100%"><stop offset="14.444444444444446%" stop-color="#fcaf3c" stop-opacity="1"></stop><stop offset="85.55555555555554%" stop-color="#fcaf3c" stop-opacity="1"></stop></linearGradient></defs><defs><linearGradient id="grad1_1" x1="43.8%" y1="0%" x2="100%" y2="100%"><stop offset="14.444444444444446%" stop-color="#fcaf3c" stop-opacity="1"></stop><stop offset="85.55555555555554%" stop-color="#f07c54" stop-opacity="1"></stop></linearGradient></defs><defs><linearGradient id="grad1_2" x1="43.8%" y1="0%" x2="100%" y2="100%"><stop offset="14.444444444444446%" stop-color="#c95867" stop-opacity="1"></stop><stop offset="85.55555555555554%" stop-color="#f07c54" stop-opacity="1"></stop></linearGradient></defs><defs><linearGradient id="grad1_3" x1="43.8%" y1="0%" x2="100%" y2="100%"><stop offset="14.444444444444446%" stop-color="#c95867" stop-opacity="1"></stop><stop offset="85.55555555555554%" stop-color="#90446c" stop-opacity="1"></stop></linearGradient></defs><defs><linearGradient id="grad1_4" x1="43.8%" y1="0%" x2="100%" y2="100%"><stop offset="14.444444444444446%" stop-color="#53365d" stop-opacity="1"></stop><stop offset="85.55555555555554%" stop-color="#90446c" stop-opacity="1"></stop></linearGradient></defs><defs><linearGradient id="grad1_5" x1="43.8%" y1="0%" x2="100%" y2="100%"><stop offset="14.444444444444446%" stop-color="#53365d" stop-opacity="1"></stop><stop offset="85.55555555555554%" stop-color="#21243c" stop-opacity="1"></stop></linearGradient></defs><defs><linearGradient id="grad1_6" x1="43.8%" y1="0%" x2="100%" y2="100%"><stop offset="14.444444444444446%" stop-color="#000b15" stop-opacity="1"></stop><stop offset="85.55555555555554%" stop-color="#21243c" stop-opacity="1"></stop></linearGradient></defs><defs><linearGradient id="grad2_0" x1="0%" y1="0%" x2="56.3%" y2="100%"><stop offset="14.444444444444446%" stop-color="#fcaf3c" stop-opacity="1"></stop><stop offset="85.55555555555554%" stop-color="#fcaf3c" stop-opacity="1"></stop></linearGradient></defs><defs><linearGradient id="grad2_1" x1="0%" y1="0%" x2="56.3%" y2="100%"><stop offset="14.444444444444446%" stop-color="#f07c54" stop-opacity="1"></stop><stop offset="85.55555555555554%" stop-color="#fcaf3c" stop-opacity="1"></stop></linearGradient></defs><defs><linearGradient id="grad2_2" x1="0%" y1="0%" x2="56.3%" y2="100%"><stop offset="14.444444444444446%" stop-color="#f07c54" stop-opacity="1"></stop><stop offset="85.55555555555554%" stop-color="#c95867" stop-opacity="1"></stop></linearGradient></defs><defs><linearGradient id="grad2_3" x1="0%" y1="0%" x2="56.3%" y2="100%"><stop offset="14.444444444444446%" stop-color="#90446c" stop-opacity="1"></stop><stop offset="85.55555555555554%" stop-color="#c95867" stop-opacity="1"></stop></linearGradient></defs><defs><linearGradient id="grad2_4" x1="0%" y1="0%" x2="56.3%" y2="100%"><stop offset="14.444444444444446%" stop-color="#90446c" stop-opacity="1"></stop><stop offset="85.55555555555554%" stop-color="#53365d" stop-opacity="1"></stop></linearGradient></defs><defs><linearGradient id="grad2_5" x1="0%" y1="0%" x2="56.3%" y2="100%"><stop offset="14.444444444444446%" stop-color="#21243c" stop-opacity="1"></stop><stop offset="85.55555555555554%" stop-color="#53365d" stop-opacity="1"></stop></linearGradient></defs><defs><linearGradient id="grad2_6" x1="0%" y1="0%" x2="56.3%" y2="100%"><stop offset="14.444444444444446%" stop-color="#21243c" stop-opacity="1"></stop><stop offset="85.55555555555554%" stop-color="#000b15" stop-opacity="1"></stop></linearGradient></defs><g transform="translate(1920, 0)"><path d="M0 756C-31.8 759.9 -63.6 763.7 -91.1 750.5C-118.7 737.3 -142 707 -172.8 701C-203.6 695.1 -241.8 713.4 -259.9 685.4C-278 657.3 -275.9 582.9 -287.7 548.1C-299.4 513.3 -324.9 518 -368.7 534.1C-412.4 550.2 -474.3 577.6 -500.7 565.1C-527 552.6 -517.8 500.2 -524.7 464.8C-531.6 429.5 -554.7 411.4 -551.4 380.6C-548.1 349.8 -518.3 306.4 -555.2 291.4C-592 276.3 -695.4 289.7 -704.1 267C-712.7 244.3 -626.6 185.7 -611.7 150.8C-596.8 115.9 -653 104.8 -688.9 83.7C-724.9 62.5 -740.4 31.2 -756 0L0 0Z" fill="#101928"></path><path d="M0 648C-27.2 651.3 -54.5 654.6 -78.1 643.3C-101.7 631.9 -121.7 606 -148.1 600.9C-174.5 595.8 -207.3 611.5 -222.8 587.5C-238.3 563.4 -236.5 499.7 -246.6 469.8C-256.6 439.9 -278.5 444 -316 457.8C-353.5 471.6 -406.6 495.1 -429.1 484.4C-451.7 473.7 -443.8 428.7 -449.7 398.4C-455.7 368.2 -475.5 352.6 -472.6 326.2C-469.8 299.8 -444.3 262.6 -475.9 249.8C-507.4 236.9 -596.1 248.3 -603.5 228.9C-610.9 209.4 -537.1 159.1 -524.3 129.2C-511.5 99.3 -559.7 89.8 -590.5 71.7C-621.3 53.6 -634.7 26.8 -648 0L0 0Z" fill="#372e4e"></path><path d="M0 540C-22.7 542.8 -45.4 545.5 -65.1 536.1C-84.8 526.6 -101.4 505 -123.4 500.7C-145.4 496.5 -172.7 509.6 -185.7 489.5C-198.6 469.5 -197.1 416.4 -205.5 391.5C-213.9 366.6 -232.1 370 -263.3 381.5C-294.6 393 -338.8 412.6 -357.6 403.7C-376.4 394.7 -369.8 357.3 -374.8 332C-379.7 306.8 -396.2 293.8 -393.9 271.9C-391.5 249.9 -370.2 218.9 -396.6 208.1C-422.9 197.4 -496.7 206.9 -502.9 190.7C-509.1 174.5 -447.6 132.6 -436.9 107.7C-426.3 82.8 -466.4 74.9 -492.1 59.8C-517.8 44.6 -528.9 22.3 -540 0L0 0Z" fill="#713d67"></path><path d="M0 432C-18.2 434.2 -36.3 436.4 -52.1 428.9C-67.8 421.3 -81.1 404 -98.7 400.6C-116.3 397.2 -138.2 407.7 -148.5 391.6C-158.9 375.6 -157.7 333.1 -164.4 313.2C-171.1 293.3 -185.7 296 -210.7 305.2C-235.7 314.4 -271 330.1 -286.1 322.9C-301.1 315.8 -295.9 285.8 -299.8 265.6C-303.8 245.5 -317 235.1 -315.1 217.5C-313.2 199.9 -296.2 175.1 -317.2 166.5C-338.3 157.9 -397.4 165.5 -402.3 152.6C-407.3 139.6 -358.1 106.1 -349.5 86.2C-341 66.2 -373.2 59.9 -393.7 47.8C-414.2 35.7 -423.1 17.9 -432 0L0 0Z" fill="#ae4d6c"></path><path d="M0 324C-13.6 325.7 -27.2 327.3 -39.1 321.6C-50.9 316 -60.9 303 -74.1 300.4C-87.2 297.9 -103.6 305.7 -111.4 293.7C-119.1 281.7 -118.3 249.8 -123.3 234.9C-128.3 220 -139.3 222 -158 228.9C-176.7 235.8 -203.3 247.6 -214.6 242.2C-225.9 236.8 -221.9 214.4 -224.9 199.2C-227.8 184.1 -237.7 176.3 -236.3 163.1C-234.9 149.9 -222.1 131.3 -237.9 124.9C-253.7 118.4 -298 124.2 -301.7 114.4C-305.5 104.7 -268.5 79.6 -262.2 64.6C-255.8 49.7 -279.9 44.9 -295.3 35.9C-310.7 26.8 -317.3 13.4 -324 0L0 0Z" fill="#df685f"></path><path d="M0 216C-9.1 217.1 -18.2 218.2 -26 214.4C-33.9 210.6 -40.6 202 -49.4 200.3C-58.2 198.6 -69.1 203.8 -74.3 195.8C-79.4 187.8 -78.8 166.6 -82.2 156.6C-85.5 146.6 -92.8 148 -105.3 152.6C-117.8 157.2 -135.5 165 -143 161.5C-150.6 157.9 -147.9 142.9 -149.9 132.8C-151.9 122.7 -158.5 117.5 -157.5 108.7C-156.6 99.9 -148.1 87.5 -158.6 83.3C-169.1 79 -198.7 82.8 -201.2 76.3C-203.6 69.8 -179 53 -174.8 43.1C-170.5 33.1 -186.6 29.9 -196.8 23.9C-207.1 17.9 -211.6 8.9 -216 0L0 0Z" fill="#fa9448"></path><path d="M0 108C-4.5 108.6 -9.1 109.1 -13 107.2C-17 105.3 -20.3 101 -24.7 100.1C-29.1 99.3 -34.5 101.9 -37.1 97.9C-39.7 93.9 -39.4 83.3 -41.1 78.3C-42.8 73.3 -46.4 74 -52.7 76.3C-58.9 78.6 -67.8 82.5 -71.5 80.7C-75.3 78.9 -74 71.5 -75 66.4C-75.9 61.4 -79.2 58.8 -78.8 54.4C-78.3 50 -74 43.8 -79.3 41.6C-84.6 39.5 -99.3 41.4 -100.6 38.1C-101.8 34.9 -89.5 26.5 -87.4 21.5C-85.3 16.6 -93.3 15 -98.4 12C-103.6 8.9 -105.8 4.5 -108 0L0 0Z" fill="#fcaf3c"></path></g><g transform="translate(0, 1080)"><path d="M0 -756C29.3 -741.3 58.6 -726.6 87.5 -720.7C116.4 -714.8 145 -717.7 178.3 -723.4C211.5 -729 249.5 -737.4 268.1 -706.9C286.7 -676.3 286 -606.8 301.1 -573.8C316.3 -540.8 347.3 -544.4 367 -531.6C386.7 -518.9 395.1 -489.9 432.4 -488C469.7 -486.2 535.9 -511.5 564.4 -500C592.9 -488.5 583.6 -440.1 589.3 -406.7C594.9 -373.3 615.3 -354.9 632.2 -331.8C649.1 -308.8 662.4 -281.1 661.1 -250.7C659.7 -220.3 643.7 -187.1 647.6 -159.6C651.6 -132.1 675.5 -110.3 696.9 -84.6C718.3 -59 737.1 -29.5 756 0L0 0Z" fill="#101928"></path><path d="M0 -648C25.1 -635.4 50.2 -622.8 75 -617.7C99.8 -612.7 124.3 -615.2 152.8 -620C181.3 -624.9 213.8 -632.1 229.8 -605.9C245.7 -579.7 245.1 -520.1 258.1 -491.8C271.1 -463.5 297.7 -466.6 314.5 -455.7C331.4 -444.8 338.6 -419.9 370.6 -418.3C402.6 -416.7 459.3 -438.4 483.8 -428.6C508.2 -418.7 500.3 -377.3 505.1 -348.6C509.9 -320 527.4 -304.2 541.9 -284.4C556.4 -264.6 567.8 -241 566.6 -214.9C565.5 -188.8 551.7 -160.4 555.1 -136.8C558.5 -113.2 579 -94.5 597.3 -72.5C615.7 -50.5 631.8 -25.3 648 0L0 0Z" fill="#372e4e"></path><path d="M0 -540C20.9 -529.5 41.8 -519 62.5 -514.8C83.2 -510.6 103.6 -512.6 127.4 -516.7C151.1 -520.7 178.2 -526.7 191.5 -504.9C204.8 -483.1 204.3 -433.4 215.1 -409.8C225.9 -386.3 248.1 -388.8 262.1 -379.7C276.2 -370.7 282.2 -349.9 308.8 -348.6C335.5 -347.3 382.8 -365.4 403.1 -357.1C423.5 -348.9 416.9 -314.4 420.9 -290.5C424.9 -266.7 439.5 -253.5 451.6 -237C463.6 -220.5 473.2 -200.8 472.2 -179.1C471.2 -157.4 459.8 -133.7 462.6 -114C465.4 -94.4 482.5 -78.8 497.8 -60.4C513.1 -42.1 526.5 -21.1 540 0L0 0Z" fill="#713d67"></path><path d="M0 -432C16.7 -423.6 33.5 -415.2 50 -411.8C66.5 -408.5 82.9 -410.1 101.9 -413.3C120.9 -416.6 142.6 -421.4 153.2 -403.9C163.8 -386.5 163.4 -346.7 172.1 -327.9C180.7 -309 198.4 -311.1 209.7 -303.8C220.9 -296.5 225.7 -279.9 247.1 -278.9C268.4 -277.8 306.2 -292.3 322.5 -285.7C338.8 -279.1 333.5 -251.5 336.7 -232.4C339.9 -213.3 351.6 -202.8 361.3 -189.6C370.9 -176.4 378.5 -160.6 377.7 -143.3C377 -125.9 367.8 -106.9 370.1 -91.2C372.3 -75.5 386 -63 398.2 -48.4C410.4 -33.7 421.2 -16.8 432 0L0 0Z" fill="#ae4d6c"></path><path d="M0 -324C12.6 -317.7 25.1 -311.4 37.5 -308.9C49.9 -306.3 62.2 -307.6 76.4 -310C90.7 -312.4 106.9 -316 114.9 -302.9C122.9 -289.8 122.6 -260 129.1 -245.9C135.6 -231.8 148.8 -233.3 157.3 -227.8C165.7 -222.4 169.3 -209.9 185.3 -209.2C201.3 -208.4 229.7 -219.2 241.9 -214.3C254.1 -209.4 250.1 -188.6 252.5 -174.3C254.9 -160 263.7 -152.1 270.9 -142.2C278.2 -132.3 283.9 -120.5 283.3 -107.4C282.7 -94.4 275.9 -80.2 277.6 -68.4C279.2 -56.6 289.5 -47.3 298.7 -36.3C307.8 -25.3 315.9 -12.6 324 0L0 0Z" fill="#df685f"></path><path d="M0 -216C8.4 -211.8 16.7 -207.6 25 -205.9C33.3 -204.2 41.4 -205.1 50.9 -206.7C60.4 -208.3 71.3 -210.7 76.6 -202C81.9 -193.2 81.7 -173.4 86 -163.9C90.4 -154.5 99.2 -155.5 104.8 -151.9C110.5 -148.3 112.9 -140 123.5 -139.4C134.2 -138.9 153.1 -146.1 161.3 -142.9C169.4 -139.6 166.8 -125.8 168.4 -116.2C170 -106.7 175.8 -101.4 180.6 -94.8C185.5 -88.2 189.3 -80.3 188.9 -71.6C188.5 -62.9 183.9 -53.5 185 -45.6C186.2 -37.7 193 -31.5 199.1 -24.2C205.2 -16.8 210.6 -8.4 216 0L0 0Z" fill="#fa9448"></path><path d="M0 -108C4.2 -105.9 8.4 -103.8 12.5 -103C16.6 -102.1 20.7 -102.5 25.5 -103.3C30.2 -104.1 35.6 -105.3 38.3 -101C41 -96.6 40.9 -86.7 43 -82C45.2 -77.3 49.6 -77.8 52.4 -75.9C55.2 -74.1 56.4 -70 61.8 -69.7C67.1 -69.5 76.6 -73.1 80.6 -71.4C84.7 -69.8 83.4 -62.9 84.2 -58.1C85 -53.3 87.9 -50.7 90.3 -47.4C92.7 -44.1 94.6 -40.2 94.4 -35.8C94.2 -31.5 92 -26.7 92.5 -22.8C93.1 -18.9 96.5 -15.8 99.6 -12.1C102.6 -8.4 105.3 -4.2 108 0L0 0Z" fill="#fcaf3c"></path></g></svg>